REM DIRINDEX 1\2,1\3
REM DIRNAME cjc143,folder01,folder02
TITLE ""
FILE "2000 phrasesTrack32.mp3" MP3
  TRACK 01 AUDIO
    TITLE "2:cjc143_1111"
    INDEX 01 00:00:00
  TRACK 02 AUDIO
    TITLE "0:"
    INDEX 01 00:00:68
  TRACK 03 AUDIO
    TITLE "2:cjc143_1112"
    INDEX 01 00:01:40
  TRACK 04 AUDIO
    TITLE "0:"
    INDEX 01 00:03:29
  TRACK 05 AUDIO
    TITLE "2:cjc143_1113"
    INDEX 01 00:03:35
  TRACK 06 AUDIO
    TITLE "0:"
    INDEX 01 00:05:44
  TRACK 07 AUDIO
    TITLE "2:cjc143_1114"
    INDEX 01 00:05:52
  TRACK 08 AUDIO
    TITLE "0:"
    INDEX 01 00:07:72
  TRACK 09 AUDIO
    TITLE "2:cjc143_1115"
    INDEX 01 00:08:03
  TRACK 10 AUDIO
    TITLE "0:"
    INDEX 01 00:09:53
  TRACK 11 AUDIO
    TITLE "2:cjc143_1116"
    INDEX 01 00:09:63
  TRACK 12 AUDIO
    TITLE "0:"
    INDEX 01 00:11:50
  TRACK 13 AUDIO
    TITLE "2:cjc143_1117"
    INDEX 01 00:11:58
  TRACK 14 AUDIO
    TITLE "0:"
    INDEX 01 00:13:35
  TRACK 15 AUDIO
    TITLE "2:cjc143_1118"
    INDEX 01 00:13:49
  TRACK 16 AUDIO
    TITLE "0:"
    INDEX 01 00:15:28
  TRACK 17 AUDIO
    TITLE "2:cjc143_1119"
    INDEX 01 00:15:46
  TRACK 18 AUDIO
    TITLE "0:"
    INDEX 01 00:17:27
  TRACK 19 AUDIO
    TITLE "2:cjc143_1120"
    INDEX 01 00:17:39
  TRACK 20 AUDIO
    TITLE "0:"
    INDEX 01 00:19:13
  TRACK 21 AUDIO
    TITLE "2:cjc143_1121"
    INDEX 01 00:19:20
  TRACK 22 AUDIO
    TITLE "0:"
    INDEX 01 00:20:47
  TRACK 23 AUDIO
    TITLE "2:cjc143_1122"
    INDEX 01 00:21:25
  TRACK 24 AUDIO
    TITLE "0:"
    INDEX 01 00:22:64
  TRACK 25 AUDIO
    TITLE "2:cjc143_1123"
    INDEX 01 00:22:68
  TRACK 26 AUDIO
    TITLE "0:"
    INDEX 01 00:24:29
  TRACK 27 AUDIO
    TITLE "2:cjc143_1124"
    INDEX 01 00:24:37
  TRACK 28 AUDIO
    TITLE "0:"
    INDEX 01 00:26:20
  TRACK 29 AUDIO
    TITLE "2:cjc143_1125"
    INDEX 01 00:26:32
  TRACK 30 AUDIO
    TITLE "0:"
    INDEX 01 00:28:02
  TRACK 31 AUDIO
    TITLE "2:cjc143_1126"
    INDEX 01 00:28:08
  TRACK 32 AUDIO
    TITLE "0:"
    INDEX 01 00:30:22
  TRACK 33 AUDIO
    TITLE "2:cjc143_1127"
    INDEX 01 00:30:63
  TRACK 34 AUDIO
    TITLE "0:"
    INDEX 01 00:33:09
  TRACK 35 AUDIO
    TITLE "2:cjc143_1128"
    INDEX 01 00:33:15
  TRACK 36 AUDIO
    TITLE "0:"
    INDEX 01 00:35:06
  TRACK 37 AUDIO
    TITLE "2:cjc143_1129"
    INDEX 01 00:35:14
  TRACK 38 AUDIO
    TITLE "0:"
    INDEX 01 00:37:34
  TRACK 39 AUDIO
    TITLE "2:cjc143_1130"
    INDEX 01 00:37:42
  TRACK 40 AUDIO
    TITLE "0:"
    INDEX 01 00:39:17
  TRACK 41 AUDIO
    TITLE "2:cjc143_1131"
    INDEX 01 00:39:33
  TRACK 42 AUDIO
    TITLE "0:"
    INDEX 01 00:41:30
  TRACK 43 AUDIO
    TITLE "2:cjc143_1132"
    INDEX 01 00:42:02
  TRACK 44 AUDIO
    TITLE "0:"
    INDEX 01 00:43:44
  TRACK 45 AUDIO
    TITLE "2:cjc143_1133"
    INDEX 01 00:43:54
  TRACK 46 AUDIO
    TITLE "0:"
    INDEX 01 00:45:43
  TRACK 47 AUDIO
    TITLE "2:cjc143_1134"
    INDEX 01 00:45:61
  TRACK 48 AUDIO
    TITLE "0:"
    INDEX 01 00:47:56
  TRACK 49 AUDIO
    TITLE "2:cjc143_1135"
    INDEX 01 00:47:68
  TRACK 50 AUDIO
    TITLE "0:"
    INDEX 01 00:50:05
  TRACK 51 AUDIO
    TITLE "2:cjc143_1136"
    INDEX 01 00:50:23
  TRACK 52 AUDIO
    TITLE "0:"
    INDEX 01 00:52:41
  TRACK 53 AUDIO
    TITLE "2:cjc143_1137"
    INDEX 01 00:53:09
  TRACK 54 AUDIO
    TITLE "0:"
    INDEX 01 00:54:68
  TRACK 55 AUDIO
    TITLE "2:cjc143_1138"
    INDEX 01 00:55:08
  TRACK 56 AUDIO
    TITLE "0:"
    INDEX 01 00:57:01
  TRACK 57 AUDIO
    TITLE "2:cjc143_1139"
    INDEX 01 00:57:15
  TRACK 58 AUDIO
    TITLE "0:"
    INDEX 01 00:59:08
  TRACK 59 AUDIO
    TITLE "2:cjc143_1140"
    INDEX 01 00:59:18
  TRACK 60 AUDIO
    TITLE "0:"
    INDEX 01 01:01:01
